<svg width="18" height="18" viewBox="0 0 18 18" fill="none" xmlns="http://www.w3.org/2000/svg">
<g clip-path="url(#clip0_700_229154)">
<path d="M8.77521 2.10174C8.91879 2.039 9.08204 2.039 9.22563 2.10174C12.0147 3.32036 14.6581 4.81005 17.1225 6.53744C17.3009 6.66245 17.391 6.87917 17.3539 7.09379C17.3169 7.3084 17.1593 7.48233 16.9493 7.54028C16.4356 7.68207 15.9264 7.83478 15.4217 7.99753C13.3734 8.65813 11.4017 9.4893 9.52323 10.4744L9.52077 10.4756C9.43561 10.5203 9.35063 10.5653 9.26585 10.6106C9.1002 10.6991 8.90132 10.6991 8.73568 10.6106C8.65008 10.5649 8.56429 10.5194 8.4783 10.4744C7.54945 9.98728 6.5978 9.53782 5.62537 9.128V8.96023C5.62537 8.86172 5.67593 8.77431 5.75416 8.72691C6.883 8.04302 8.0474 7.41201 9.24391 6.83729C9.52394 6.70278 9.64191 6.36674 9.50741 6.0867C9.3729 5.80667 9.03685 5.6887 8.75682 5.82321C7.52738 6.41374 6.33101 7.06209 5.17124 7.76471C4.8312 7.97072 4.60261 8.30788 4.52742 8.6856C3.88623 8.43896 3.23661 8.20922 2.57908 7.99718C2.07446 7.83444 1.56519 7.68205 1.05152 7.54027C0.841584 7.48232 0.683962 7.30839 0.646896 7.09378C0.609831 6.87916 0.699984 6.66244 0.878326 6.53743C3.34271 4.81004 5.9861 3.32035 8.77521 2.10174Z" fill="#737373"/>
<path d="M9.79601 11.6028C11.6252 10.6255 13.5469 9.79928 15.5447 9.14072C15.6454 10.2018 15.7097 11.2735 15.7363 12.3544C15.742 12.5863 15.6048 12.7979 15.3907 12.8873C13.2524 13.7801 11.2184 14.8733 9.31232 16.1435C9.12341 16.2694 8.87735 16.2694 8.68845 16.1435C6.78237 14.8733 4.74841 13.7801 2.61006 12.8873C2.39599 12.7979 2.25874 12.5863 2.26445 12.3544C2.29108 11.2734 2.35537 10.2017 2.45607 9.14047C3.14682 9.36816 3.82848 9.61589 4.50037 9.88297V10.8358C4.1641 11.0303 3.93787 11.3939 3.93787 11.8103C3.93787 12.1818 4.11792 12.5112 4.39553 12.7161C4.32839 13.0015 4.22903 13.2809 4.09744 13.5484C4.43696 13.7086 4.77358 13.874 5.10719 14.0445C5.29719 13.658 5.43496 13.2524 5.52047 12.8383C5.91373 12.663 6.18787 12.2686 6.18787 11.8103C6.18787 11.3939 5.96163 11.0303 5.62537 10.8358V10.3522C6.50392 10.7361 7.3645 11.1535 8.20551 11.6028C8.70244 11.8684 9.29909 11.8684 9.79601 11.6028Z" fill="#737373"/>
<path d="M3.34703 14.5945C3.66138 14.2801 3.91163 13.9261 4.09744 13.5484C4.43696 13.7086 4.77358 13.874 5.10719 14.0445C4.86828 14.5304 4.54659 14.9859 4.14253 15.39C3.92286 15.6097 3.5667 15.6097 3.34703 15.39C3.12736 15.1703 3.12736 14.8142 3.34703 14.5945Z" fill="#737373"/>
</g>
<defs>
<clipPath id="clip0_700_229154">
<rect width="18" height="18" fill="white"/>
</clipPath>
</defs>
</svg>
