<svg width="26" height="26" viewBox="0 0 26 26" fill="none" xmlns="http://www.w3.org/2000/svg">
<path id="Vector" d="M10.1719 7.02513C11.734 5.65829 14.2666 5.65829 15.8287 7.02513C17.3908 8.39196 17.3908 10.608 15.8287 11.9749C15.5568 12.2128 15.2556 12.4093 14.9351 12.5644C13.9409 13.0455 13.0003 13.8954 13.0003 15V16M25 13C25 19.6274 19.6274 25 13 25C6.37258 25 1 19.6274 1 13C1 6.37258 6.37258 1 13 1C19.6274 1 25 6.37258 25 13ZM13 20H13.01V20.01H13V20Z" stroke="#1E3A76" stroke-width="2" stroke-linecap="round" stroke-linejoin="round"/>
</svg>
