<svg width="18" height="18" viewBox="0 0 18 18" fill="none" xmlns="http://www.w3.org/2000/svg">
<path d="M9.6748 15.1406C10.7619 14.3915 12.0789 13.9531 13.4998 13.9531C14.1391 13.9531 14.7566 14.0418 15.3411 14.2071C15.5446 14.2647 15.7633 14.2235 15.932 14.096C16.1007 13.9684 16.1998 13.7691 16.1998 13.5576V3.65762C16.1998 3.35558 15.9992 3.0903 15.7085 3.0081C15.0056 2.80929 14.2645 2.70312 13.4998 2.70312C12.117 2.70312 10.8142 3.05007 9.6748 3.66151V15.1406Z" fill="#737373"/>
<path d="M8.3248 3.66151C7.18537 3.05007 5.88256 2.70312 4.4998 2.70312C3.73507 2.70312 2.99401 2.80929 2.2911 3.0081C2.00046 3.0903 1.7998 3.35558 1.7998 3.65762V13.5576C1.7998 13.7691 1.89893 13.9684 2.06761 14.096C2.23628 14.2235 2.455 14.2647 2.65851 14.2071C3.24305 14.0418 3.86051 13.9531 4.4998 13.9531C5.92076 13.9531 7.23768 14.3915 8.3248 15.1406V3.66151Z" fill="#737373"/>
</svg>
