<svg width="12" height="16" viewBox="0 0 12 16" fill="none" xmlns="http://www.w3.org/2000/svg">
<path fill-rule="evenodd" clip-rule="evenodd" d="M0 1.2V13.2C0 13.5183 0.126428 13.8235 0.351472 14.0485C0.576515 14.2736 0.88174 14.4 1.2 14.4H6.4V12.986C6.09497 12.8099 5.85658 12.5381 5.72179 12.2127C5.58701 11.8872 5.56336 11.5265 5.65452 11.1862C5.74568 10.846 5.94655 10.5454 6.22598 10.331C6.50541 10.1166 6.84779 10.0004 7.2 10.0004C7.55222 10.0004 7.89459 10.1166 8.17402 10.331C8.45345 10.5454 8.65432 10.846 8.74548 11.1862C8.83664 11.5265 8.81299 11.8872 8.67821 12.2127C8.54342 12.5381 8.30503 12.8099 8 12.986V14.4H10C10.3183 14.4 10.6235 14.2736 10.8485 14.0485C11.0736 13.8235 11.2 13.5183 11.2 13.2V1.2C11.2 0.88174 11.0736 0.576516 10.8485 0.351472C10.6235 0.126428 10.3183 0 10 0H1.2C0.88174 0 0.576515 0.126428 0.351472 0.351472C0.126428 0.576516 0 0.88174 0 1.2ZM7.2 12.4C7.41217 12.4 7.61566 12.3157 7.76569 12.1657C7.91571 12.0157 8 11.8122 8 11.6C8 11.3878 7.91571 11.1843 7.76569 11.0343C7.61566 10.8843 7.41217 10.8 7.2 10.8C6.98783 10.8 6.78434 10.8843 6.63432 11.0343C6.48429 11.1843 6.4 11.3878 6.4 11.6C6.4 11.8122 6.48429 12.0157 6.63432 12.1657C6.78434 12.3157 6.98783 12.4 7.2 12.4ZM3.2 2.8C3.2 2.69391 3.24214 2.59217 3.31716 2.51716C3.39217 2.44214 3.49391 2.4 3.6 2.4H7.6C7.70609 2.4 7.80783 2.44214 7.88284 2.51716C7.95786 2.59217 8 2.69391 8 2.8C8 2.90609 7.95786 3.00783 7.88284 3.08284C7.80783 3.15786 7.70609 3.2 7.6 3.2H3.6C3.49391 3.2 3.39217 3.15786 3.31716 3.08284C3.24214 3.00783 3.2 2.90609 3.2 2.8ZM2 4.8C1.89391 4.8 1.79217 4.84214 1.71716 4.91716C1.64214 4.99217 1.6 5.09391 1.6 5.2C1.6 5.30609 1.64214 5.40783 1.71716 5.48284C1.79217 5.55786 1.89391 5.6 2 5.6H9.2C9.30609 5.6 9.40783 5.55786 9.48284 5.48284C9.55786 5.40783 9.6 5.30609 9.6 5.2C9.6 5.09391 9.55786 4.99217 9.48284 4.91716C9.40783 4.84214 9.30609 4.8 9.2 4.8H2ZM1.6 6.8C1.6 6.69391 1.64214 6.59217 1.71716 6.51716C1.79217 6.44214 1.89391 6.4 2 6.4H9.2C9.30609 6.4 9.40783 6.44214 9.48284 6.51716C9.55786 6.59217 9.6 6.69391 9.6 6.8C9.6 6.90609 9.55786 7.00783 9.48284 7.08284C9.40783 7.15786 9.30609 7.2 9.2 7.2H2C1.89391 7.2 1.79217 7.15786 1.71716 7.08284C1.64214 7.00783 1.6 6.90609 1.6 6.8ZM2 8C1.89391 8 1.79217 8.04214 1.71716 8.11716C1.64214 8.19217 1.6 8.29391 1.6 8.4C1.6 8.50609 1.64214 8.60783 1.71716 8.68284C1.79217 8.75786 1.89391 8.8 2 8.8H9.2C9.30609 8.8 9.40783 8.75786 9.48284 8.68284C9.55786 8.60783 9.6 8.50609 9.6 8.4C9.6 8.29391 9.55786 8.19217 9.48284 8.11716C9.40783 8.04214 9.30609 8 9.2 8H2Z" fill="#9CA3AF"/>
<path d="M6.4 16V14.4H8V16L7.2 15.4L6.4 16Z" fill="#9CA3AF"/>
</svg>
