<svg width="20" height="20" viewBox="0 0 20 20" fill="none" xmlns="http://www.w3.org/2000/svg">
<rect x="0.501953" y="0.5" width="19" height="19" rx="3.5" fill="#1E3A76" stroke="#1E3A76"/>
<path d="M15.0935 6.95197L15.0886 6.94607L15.0833 6.94057C14.9027 6.75356 14.6123 6.75315 14.4312 6.93931L9.16397 12.2296L6.58702 9.63469C6.40596 9.44841 6.11546 9.44879 5.93484 9.63584C5.75766 9.81933 5.75766 10.1087 5.93485 10.2922L5.93483 10.2923L5.9368 10.2942L8.58241 12.9583C8.73872 13.1196 8.95178 13.2 9.14926 13.2C9.36391 13.2 9.56159 13.1177 9.71602 12.9584L15.0487 7.60234C15.2456 7.4199 15.2441 7.1339 15.0935 6.95197ZM9.23466 12.3008L9.23366 12.2998C9.23401 12.3001 9.23432 12.3005 9.23464 12.3008L9.23466 12.3008Z" fill="white" stroke="white" stroke-width="0.4"/>
</svg>
