<svg xmlns="http://www.w3.org/2000/svg" width="14" height="14" viewBox="0 0 14 14" fill="none">
  <g clip-path="url(#clip0_651_293595)">
    <path d="M7.69961 7.0001L13.0371 1.6626C13.234 1.46572 13.234 1.15947 13.0371 0.962598C12.8402 0.765723 12.534 0.765723 12.3371 0.962598L6.99961 6.3001L1.66211 0.962598C1.46523 0.765723 1.15898 0.765723 0.962109 0.962598C0.765234 1.15947 0.765234 1.46572 0.962109 1.6626L6.29961 7.0001L0.962109 12.3376C0.765234 12.5345 0.765234 12.8407 0.962109 13.0376C1.04961 13.1251 1.18086 13.1907 1.31211 13.1907C1.44336 13.1907 1.57461 13.147 1.66211 13.0376L6.99961 7.7001L12.3371 13.0376C12.4246 13.1251 12.5559 13.1907 12.6871 13.1907C12.8184 13.1907 12.9496 13.147 13.0371 13.0376C13.234 12.8407 13.234 12.5345 13.0371 12.3376L7.69961 7.0001Z" fill="#ffffff"/>
  </g>
  <defs>
    <clipPath id="clip0_651_293595">
      <rect width="14" height="14" fill="white"/>
    </clipPath>
  </defs>
</svg>