<svg width="17" height="16" viewBox="0 0 17 16" fill="none" xmlns="http://www.w3.org/2000/svg">
<path d="M9.29941 8.00234L15.3994 1.90234C15.6244 1.67734 15.6244 1.32734 15.3994 1.10234C15.1744 0.877344 14.8244 0.877344 14.5994 1.10234L8.49941 7.20234L2.39941 1.10234C2.17441 0.877344 1.82441 0.877344 1.59941 1.10234C1.37441 1.32734 1.37441 1.67734 1.59941 1.90234L7.69941 8.00234L1.59941 14.1023C1.37441 14.3273 1.37441 14.6773 1.59941 14.9023C1.69941 15.0023 1.84941 15.0773 1.99941 15.0773C2.14941 15.0773 2.29941 15.0273 2.39941 14.9023L8.49941 8.80234L14.5994 14.9023C14.6994 15.0023 14.8494 15.0773 14.9994 15.0773C15.1494 15.0773 15.2994 15.0273 15.3994 14.9023C15.6244 14.6773 15.6244 14.3273 15.3994 14.1023L9.29941 8.00234Z" fill="#1E3A76"/>
</svg>