<svg width="32" height="32" viewBox="0 0 32 32" fill="none" xmlns="http://www.w3.org/2000/svg">
<g id="heroicons-solid/cloud-arrow-up">
<path id="Subtract" fill-rule="evenodd" clip-rule="evenodd" d="M14.002 5C9.58368 5 6.00195 8.58172 6.00195 13C6.00195 13.2225 6.01106 13.443 6.02894 13.6612C3.65031 14.7787 2.00195 17.1958 2.00195 20C2.00195 23.866 5.13596 27 9.00195 27H24.002C27.3157 27 30.002 24.3137 30.002 21C30.002 18.7537 28.7679 16.7975 26.943 15.7693C26.9818 15.5182 27.002 15.2612 27.002 15C27.002 12.2386 24.7634 10 22.002 10C21.8098 10 21.62 10.0109 21.433 10.0321C20.2544 7.08376 17.3726 5 14.002 5ZM16.7091 12.2929C16.3185 11.9024 15.6854 11.9024 15.2948 12.2929L11.2948 16.2929C10.9043 16.6834 10.9043 17.3166 11.2948 17.7071C11.6854 18.0976 12.3185 18.0976 12.7091 17.7071L15.002 15.4142L15.002 22C15.002 22.5523 15.4497 23 16.002 23C16.5542 23 17.002 22.5523 17.002 22V15.4142L19.2948 17.7071C19.6854 18.0976 20.3185 18.0976 20.7091 17.7071C21.0996 17.3166 21.0996 16.6834 20.7091 16.2929L16.7091 12.2929Z" fill="#737373"/>
</g>
</svg>
