<svg
                width="18"
                height="18"
                viewBox="0 0 18 18"
                fill="none"
                xmlns="http://www.w3.org/2000/svg"
              >
                <path
                  fill-rule="evenodd"
                  clip-rule="evenodd"
                  d="M15.3008 9.00156C15.3008 9.37436 14.9986 9.67656 14.6258 9.67656L5.05165 9.67656L8.79363 13.24C9.06235 13.4984 9.07073 13.9257 8.81234 14.1944C8.55396 14.4631 8.12665 14.4715 7.85793 14.2131L2.90793 9.48812C2.77558 9.36086 2.70078 9.18517 2.70078 9.00156C2.70078 8.81795 2.77558 8.64226 2.90793 8.515L7.85793 3.79C8.12665 3.53162 8.55396 3.53999 8.81234 3.80871C9.07073 4.07744 9.06235 4.50474 8.79363 4.76313L5.05165 8.32656L14.6258 8.32656C14.9986 8.32656 15.3008 8.62877 15.3008 9.00156Z"
                  fill="#0F172A"
                />
              </svg>