<svg width="40" height="40" viewBox="0 0 40 40" fill="none" xmlns="http://www.w3.org/2000/svg">
<path d="M12.1017 23.2909C11.9847 23.2023 12.0007 23.0559 12.0007 23.0559L12.6481 15.3664C12.6481 15.3664 12.6579 15.2815 12.6961 15.2384C12.7195 15.2113 12.749 15.1719 12.8069 15.1485C13.4554 14.8827 16.9888 12.9689 18.7697 14.751C19.065 15.0932 19.385 15.5978 19.385 15.9817V22.4897C19.385 22.4897 19.3924 22.6276 19.2681 22.7113C19.2228 22.737 19.1717 22.7509 19.1197 22.7516C19.0676 22.7522 19.0162 22.7396 18.9703 22.715C16.2307 21.3439 13.1724 22.9045 12.4007 23.3143C12.354 23.3402 12.3007 23.3516 12.2475 23.3472C12.1943 23.3428 12.1435 23.3228 12.1017 23.2897M27.6 23.3131C26.8284 22.9033 23.77 21.3439 21.0305 22.7137C20.9846 22.7384 20.9332 22.751 20.8811 22.7503C20.829 22.7497 20.7779 22.7358 20.7326 22.71C20.6083 22.6276 20.6157 22.4897 20.6157 22.4897V15.9817C20.6157 15.5978 20.9357 15.0932 21.2311 14.751C23.0107 12.9689 26.5231 14.8827 27.1717 15.1485C27.2283 15.1719 27.2579 15.2113 27.2825 15.2384C27.3194 15.2815 27.3305 15.3664 27.3305 15.3664L27.9988 23.0559C27.9988 23.0559 28.016 23.2023 27.9003 23.2897C27.8583 23.3231 27.8074 23.3433 27.7539 23.3476C27.7004 23.352 27.6469 23.3404 27.6 23.3143M21.6803 26.6717C21.7371 26.6554 21.7877 26.6223 21.8255 26.5769C21.8557 26.5384 21.8737 26.4917 21.8772 26.4428C21.9387 25.2884 23.8759 24.2127 27.5976 26.4059C27.6923 26.46 27.8019 26.4551 27.8954 26.3874C28.0012 26.3099 28 26.1782 28 26.1782V25.4976C28 25.4976 28 25.4028 27.9668 25.3511C27.9391 25.3063 27.8995 25.2701 27.8523 25.2465C25.3601 23.6281 22.2083 22.9106 20.6096 25.0496C20.5912 25.0946 20.56 25.1331 20.5197 25.1604C20.4496 25.2158 20.3647 25.2121 20.3647 25.2121H19.6447C19.6447 25.2121 19.5585 25.2158 19.4896 25.1616C19.4494 25.1344 19.4181 25.0958 19.3998 25.0509C17.7999 22.9106 14.6492 23.5937 12.157 25.2121C12.1097 25.2359 12.0701 25.2726 12.0426 25.3179C12.0094 25.3696 12.0094 25.4631 12.0094 25.4631V26.145C12.0094 26.145 12.0081 26.2766 12.114 26.3542C12.1565 26.3864 12.2075 26.4053 12.2607 26.4085C12.3139 26.4118 12.3669 26.3993 12.413 26.3726C16.1335 24.1795 18.0718 25.2896 18.1321 26.4428C18.136 26.4918 18.1544 26.5385 18.1851 26.5769C18.2229 26.6223 18.2735 26.6554 18.3303 26.6717C19.2176 26.8932 20.5062 26.9794 21.6803 26.6717Z" fill="#9CA3AF"/>
</svg>
