<svg width="14" height="14" viewBox="0 0 14 14" fill="none" xmlns="http://www.w3.org/2000/svg">
<path d="M11.5714 14H1.92857C1.41708 14 0.926543 13.8156 0.564865 13.4874C0.203188 13.1592 0 12.7141 0 12.25V1.75C0 1.28587 0.203188 0.840752 0.564865 0.512563C0.926543 0.184374 1.41708 0 1.92857 0H2.89286V4.375L4.82143 3.0625L6.75 4.375V0H11.5714C12.0829 0 12.5735 0.184374 12.9351 0.512563C13.2968 0.840752 13.5 1.28587 13.5 1.75V12.25C13.5 12.7141 13.2968 13.1592 12.9351 13.4874C12.5735 13.8156 12.0829 14 11.5714 14Z" fill="#9CA3AF"/>
</svg>
