<svg width="24" height="26" viewBox="0 0 24 26" fill="none" xmlns="http://www.w3.org/2000/svg">
<g id="Delete">
<path id="Subtract" fill-rule="evenodd" clip-rule="evenodd" d="M16.5001 5.14132V5.37827C17.4548 5.46958 18.4017 5.58966 19.3398 5.73767C19.6871 5.79248 20.0332 5.85111 20.3781 5.91353C20.7863 5.98739 21.0598 6.39294 20.9891 6.81935C20.9184 7.24577 20.5302 7.53156 20.1221 7.4577C20.0525 7.4451 19.9829 7.43266 19.9131 7.42038L18.9077 21.0761C18.7875 22.7091 17.4842 23.9701 15.9166 23.9701H8.08369C6.51608 23.9701 5.21276 22.7091 5.09253 21.0761L4.0871 7.42038C4.0174 7.43266 3.94774 7.4451 3.87813 7.4577C3.47 7.53156 3.08183 7.24577 3.01113 6.81936C2.94043 6.39294 3.21398 5.98739 3.62211 5.91353C3.96701 5.85111 4.31315 5.79248 4.66048 5.73767C5.59858 5.58966 6.5454 5.46958 7.50012 5.37827V5.14132C7.50012 3.5068 8.71265 2.11147 10.3156 2.0579C10.8749 2.0392 11.4365 2.02979 12.0001 2.02979C12.5638 2.02979 13.1253 2.0392 13.6847 2.0579C15.2876 2.11147 16.5001 3.5068 16.5001 5.14132ZM10.3635 3.62426C10.9069 3.6061 11.4525 3.59695 12.0001 3.59695C12.5478 3.59695 13.0934 3.6061 13.6367 3.62426C14.3913 3.64948 15.0001 4.31151 15.0001 5.14132V5.259C14.0078 5.19605 13.0075 5.16411 12.0001 5.16411C10.9928 5.16411 9.99249 5.19605 9.00012 5.259V5.14132C9.00012 4.31151 9.6089 3.64948 10.3635 3.62426ZM10.0087 9.83549C9.9928 9.40305 9.64436 9.06597 9.23045 9.0826C8.81654 9.09924 8.49391 9.46328 8.50983 9.89572L8.85599 19.2987C8.8719 19.7311 9.22035 20.0682 9.63426 20.0516C10.0482 20.035 10.3708 19.6709 10.3549 19.2385L10.0087 9.83549ZM15.4895 9.89572C15.5054 9.46328 15.1828 9.09924 14.7689 9.0826C14.355 9.06597 14.0065 9.40305 13.9906 9.83549L13.6444 19.2385C13.6285 19.6709 13.9512 20.035 14.3651 20.0516C14.779 20.0682 15.1274 19.7311 15.1433 19.2987L15.4895 9.89572Z" fill="#BCC1C9"/>
</g>
</svg>
