<svg width="18" height="18" viewBox="0 0 18 18" fill="none" xmlns="http://www.w3.org/2000/svg">
<path fill-rule="evenodd" clip-rule="evenodd" d="M4.21875 1.125H6.75C8.3033 1.125 9.5625 2.3842 9.5625 3.9375V5.34375C9.5625 6.1204 10.1921 6.75 10.9688 6.75H12.375C13.9283 6.75 15.1875 8.0092 15.1875 9.5625V15.4688C15.1875 16.2454 14.5579 16.875 13.7812 16.875H4.21875C3.4421 16.875 2.8125 16.2454 2.8125 15.4688V2.53125C2.8125 1.7546 3.4421 1.125 4.21875 1.125ZM9.39775 8.60225C9.29226 8.49676 9.14918 8.4375 9 8.4375C8.85082 8.4375 8.70774 8.49676 8.60225 8.60225L6.35225 10.8523C6.13258 11.0719 6.13258 11.4281 6.35225 11.6477C6.57192 11.8674 6.92808 11.8674 7.14775 11.6477L8.4375 10.358L8.4375 13.5C8.4375 13.8107 8.68934 14.0625 9 14.0625C9.31066 14.0625 9.5625 13.8107 9.5625 13.5L9.5625 10.358L10.8523 11.6477C11.0719 11.8674 11.4281 11.8674 11.6477 11.6477C11.8674 11.4281 11.8674 11.0719 11.6477 10.8523L9.39775 8.60225Z" fill="#ffffff"/>
<path d="M10.6875 3.9375C10.6875 2.95271 10.326 2.05236 9.72839 1.36193C12.2776 2.02783 14.2847 4.03491 14.9506 6.5841C14.2601 5.98653 13.3598 5.625 12.375 5.625H10.9688C10.8134 5.625 10.6875 5.49908 10.6875 5.34375V3.9375Z" fill="#ffffff"/>
</svg>
