<svg width="24" height="24" viewBox="0 0 24 24" fill="none" xmlns="http://www.w3.org/2000/svg">
<g id="heroicons-solid/document">
<g id="Subtract">
<path d="M5.62598 1.5C4.59044 1.5 3.75098 2.33947 3.75098 3.375V20.625C3.75098 21.6605 4.59044 22.5 5.62598 22.5H18.376C19.4115 22.5 20.251 21.6605 20.251 20.625V12.75C20.251 10.6789 18.572 9 16.501 9H14.626C13.5904 9 12.751 8.16053 12.751 7.125V5.25C12.751 3.17893 11.072 1.5 9.00098 1.5H5.62598Z" fill="#737373"/>
<path d="M12.9722 1.8159C13.7689 2.73648 14.251 3.93695 14.251 5.25V7.125C14.251 7.33211 14.4189 7.5 14.626 7.5H16.501C17.814 7.5 19.0145 7.98204 19.9351 8.77881C19.0472 5.37988 16.3711 2.70377 12.9722 1.8159Z" fill="#737373"/>
</g>
</g>
</svg>
