<svg width="24" height="24" viewBox="0 0 24 24" fill="none" xmlns="http://www.w3.org/2000/svg">
<g id="heroicons-solid/ellipsis-vertical">
<path id="Vector (Stroke)" fill-rule="evenodd" clip-rule="evenodd" d="M10.501 6C10.501 5.17157 11.1725 4.5 12.001 4.5C12.8294 4.5 13.501 5.17157 13.501 6C13.501 6.82843 12.8294 7.5 12.001 7.5C11.1725 7.5 10.501 6.82843 10.501 6ZM10.501 12C10.501 11.1716 11.1725 10.5 12.001 10.5C12.8294 10.5 13.501 11.1716 13.501 12C13.501 12.8284 12.8294 13.5 12.001 13.5C11.1725 13.5 10.501 12.8284 10.501 12ZM10.501 18C10.501 17.1716 11.1725 16.5 12.001 16.5C12.8294 16.5 13.501 17.1716 13.501 18C13.501 18.8284 12.8294 19.5 12.001 19.5C11.1725 19.5 10.501 18.8284 10.501 18Z" fill="#8899A8"/>
</g>
</svg>
