<svg width="20" height="20" viewBox="0 0 20 20" fill="none" xmlns="http://www.w3.org/2000/svg">
<path fill-rule="evenodd" clip-rule="evenodd" d="M8.4845 2.49219C9.15808 1.32552 10.842 1.32552 11.5156 2.49219L17.7943 13.3672C18.4678 14.5339 17.6259 15.9922 16.2787 15.9922H3.72136C2.37421 15.9922 1.53224 14.5339 2.20582 13.3672L8.4845 2.49219ZM10 4.99719C10.4142 4.99719 10.75 5.33298 10.75 5.74719V9.24719C10.75 9.66141 10.4142 9.99719 10 9.99719C9.58579 9.99719 9.25 9.66141 9.25 9.24719L9.25 5.74719C9.25 5.33298 9.58579 4.99719 10 4.99719ZM10 13.9972C10.5523 13.9972 11 13.5495 11 12.9972C11 12.4449 10.5523 11.9972 10 11.9972C9.44772 11.9972 9 12.4449 9 12.9972C9 13.5495 9.44772 13.9972 10 13.9972Z" fill="#C03744"/>
</svg>
