<svg width="24" height="24" viewBox="0 0 24 24" fill="none" xmlns="http://www.w3.org/2000/svg">
<g id="heroicons-solid/funnel">
<path id="Subtract (Stroke)" fill-rule="evenodd" clip-rule="evenodd" d="M3.79252 2.93825C6.46163 2.48562 9.20411 2.25 12.001 2.25C14.7979 2.25 17.5404 2.48561 20.2094 2.93822C21.1118 3.09125 21.751 3.87676 21.751 4.77402V5.81802C21.751 6.61367 21.4349 7.37673 20.8723 7.93934L14.6903 14.1213C14.409 14.4026 14.251 14.7842 14.251 15.182V18.1094C14.251 19.2457 13.609 20.2845 12.5926 20.7927L10.8364 21.6708C10.6039 21.7871 10.3278 21.7746 10.1067 21.638C9.88557 21.5013 9.75098 21.2599 9.75098 21V15.182C9.75098 14.7842 9.59294 14.4026 9.31164 14.1213L3.12966 7.93934C2.56705 7.37673 2.25098 6.61367 2.25098 5.81802V4.77404C2.25098 3.87678 2.89015 3.09127 3.79252 2.93825Z" fill="#737373"/>
</g>
</svg>
