<svg width="20" height="20" viewBox="0 0 20 20" fill="none" xmlns="http://www.w3.org/2000/svg">
<g id="heroicons-solid/check-circle">
<path id="Subtract" fill-rule="evenodd" clip-rule="evenodd" d="M0 10C0 4.75329 4.25329 0.5 9.5 0.5C14.7467 0.5 19 4.75329 19 10C19 15.2467 14.7467 19.5 9.5 19.5C4.25329 19.5 0 15.2467 0 10ZM13.0177 8.23244C13.2523 7.90403 13.1762 7.44762 12.8478 7.21304C12.5194 6.97846 12.063 7.05452 11.8284 7.38294L8.67598 11.7964L7.09365 10.214C6.80827 9.92865 6.34557 9.92865 6.06019 10.214C5.77481 10.4994 5.77481 10.9621 6.06019 11.2475L8.2525 13.4398C8.40439 13.5917 8.61543 13.6691 8.8295 13.6514C9.04358 13.6336 9.23903 13.5226 9.36388 13.3478L13.0177 8.23244Z" fill="#15B097"/>
</g>
</svg>
