<svg width="18" height="16" viewBox="0 0 18 16" fill="none" xmlns="http://www.w3.org/2000/svg">
<g id="Group">
<path id="Vector" d="M17.0156 11.6148L10.9969 1.93047C10.5188 1.28359 9.78752 0.917969 9.00002 0.917969C8.18439 0.917969 7.45314 1.28359 7.00314 1.93047L0.984395 11.6148C0.421895 12.3742 0.33752 13.3586 0.759395 14.2023C1.18127 15.0461 2.02502 15.5805 2.98127 15.5805H15.0188C15.975 15.5805 16.8188 15.0461 17.2406 14.2023C17.6625 13.3867 17.5781 12.3742 17.0156 11.6148ZM16.1156 13.6398C15.8906 14.0617 15.4969 14.3148 15.0188 14.3148H2.98127C2.50315 14.3148 2.10939 14.0617 1.88439 13.6398C1.68752 13.218 1.71564 12.7398 1.99689 12.3742L8.01564 2.68984C8.24064 2.38047 8.60627 2.18359 9.00002 2.18359C9.39377 2.18359 9.75939 2.35234 9.9844 2.68984L16.0031 12.3742C16.2844 12.7398 16.3125 13.218 16.1156 13.6398Z" fill="#737373"/>
<path id="Vector_2" d="M8.9999 6.14844C8.6624 6.14844 8.35303 6.42969 8.35303 6.79531V9.86094C8.35303 10.1984 8.63428 10.5078 8.9999 10.5078C9.36553 10.5078 9.64678 10.2266 9.64678 9.86094V6.76719C9.64678 6.42969 9.3374 6.14844 8.9999 6.14844Z" fill="white"/>
<path id="Vector_3" d="M8.9999 11.25C8.6624 11.25 8.35303 11.5312 8.35303 11.8969V12.0375C8.35303 12.375 8.63428 12.6844 8.9999 12.6844C9.36553 12.6844 9.64678 12.4031 9.64678 12.0375V11.8688C9.64678 11.5313 9.3374 11.25 8.9999 11.25Z" fill="#737373"/>
</g>
</svg>
