<svg width="23" height="20" viewBox="0 0 23 20" fill="none" xmlns="http://www.w3.org/2000/svg">
<g id="Group">
<path id="Vector" d="M22.1875 14.4871L14.1625 1.57461C13.525 0.712109 12.55 0.224609 11.5 0.224609C10.4125 0.224609 9.43753 0.712109 8.83753 1.57461L0.812527 14.4871C0.0625265 15.4996 -0.0499735 16.8121 0.512527 17.9371C1.07503 19.0621 2.20003 19.7746 3.47503 19.7746H19.525C20.8 19.7746 21.925 19.0621 22.4875 17.9371C23.05 16.8496 22.9375 15.4996 22.1875 14.4871ZM20.9875 17.1871C20.6875 17.7496 20.1625 18.0871 19.525 18.0871H3.47503C2.83753 18.0871 2.31253 17.7496 2.01253 17.1871C1.75003 16.6246 1.78753 15.9871 2.16253 15.4996L10.1875 2.58711C10.4875 2.17461 10.975 1.91211 11.5 1.91211C12.025 1.91211 12.5125 2.13711 12.8125 2.58711L20.8375 15.4996C21.2125 15.9871 21.25 16.6246 20.9875 17.1871Z" fill="#FAFAFA"/>
<path id="Vector_2" d="M11.5002 7.19922C11.0502 7.19922 10.6377 7.57422 10.6377 8.06172V12.1492C10.6377 12.5992 11.0127 13.0117 11.5002 13.0117C11.9877 13.0117 12.3627 12.6367 12.3627 12.1492V8.02422C12.3627 7.57422 11.9502 7.19922 11.5002 7.19922Z" fill="#FAFAFA"/>
<path id="Vector_3" d="M11.5002 14C11.0502 14 10.6377 14.375 10.6377 14.8625V15.05C10.6377 15.5 11.0127 15.9125 11.5002 15.9125C11.9877 15.9125 12.3627 15.5375 12.3627 15.05V14.825C12.3627 14.375 11.9502 14 11.5002 14Z" fill="#FAFAFA"/>
</g>
</svg>
