<svg width="18" height="18" viewBox="0 0 18 18" fill="none" xmlns="http://www.w3.org/2000/svg">
<g clip-path="url(#clip0_11_7229)">
<path d="M8.97291 5.48438H8.94563C8.61836 5.48438 8.31836 5.7571 8.31836 6.11165C8.31836 6.46619 8.59109 6.73892 8.94563 6.73892H8.97291C9.30018 6.73892 9.60018 6.46619 9.60018 6.11165C9.60018 5.7571 9.32745 5.48438 8.97291 5.48438Z" fill="#1E3A76"/>
<path d="M8.972 7.63672C8.64473 7.63672 8.34473 7.90945 8.34473 8.26399V12.464C8.34473 12.7913 8.61745 13.0913 8.972 13.0913C9.29927 13.0913 9.59927 12.8185 9.59927 12.464V8.23672C9.59927 7.90945 9.32654 7.63672 8.972 7.63672Z" fill="#1E3A76"/>
<path d="M8.97262 0.765625C4.41808 0.765625 0.708984 4.44744 0.708984 9.00199C0.708984 13.5565 4.41808 17.2656 8.97262 17.2656C13.5272 17.2656 17.209 13.5565 17.209 9.00199C17.209 4.44744 13.5272 0.765625 8.97262 0.765625ZM8.97262 16.0384C5.09989 16.0384 1.93626 12.8747 1.93626 9.00199C1.93626 5.12926 5.09989 1.96562 8.97262 1.96562C12.8453 1.96562 15.9817 5.12926 15.9817 9.00199C15.9817 12.8747 12.8453 16.0384 8.97262 16.0384Z" fill="#1E3A76"/>
</g>
<defs>
<clipPath id="clip0_11_7229">
<rect width="18" height="18" fill="white"/>
</clipPath>
</defs>
</svg>
