<svg width="18" height="18" viewBox="0 0 18 18" fill="none" xmlns="http://www.w3.org/2000/svg">
<g id="ion:play">
<path id="Vector" d="M7.52973 12.7422C7.4002 12.742 7.27297 12.7092 7.16054 12.647C6.90738 12.5084 6.75 12.2394 6.75 11.9474V6.03706C6.75 5.74419 6.90738 5.47599 7.16054 5.3374C7.27565 5.27349 7.40641 5.24063 7.53915 5.24224C7.6719 5.24386 7.80177 5.27989 7.91517 5.34657L13.144 8.3702C13.253 8.43621 13.3428 8.52787 13.4051 8.6366C13.4673 8.74532 13.5 8.86754 13.5 8.9918C13.5 9.11605 13.4673 9.23828 13.4051 9.347C13.3428 9.45572 13.253 9.54739 13.144 9.6134L7.91433 12.6378C7.79827 12.7056 7.66535 12.7417 7.52973 12.7422Z" fill="#EDEDED"/>
</g>
</svg>
