<svg width="36" height="36" viewBox="0 0 36 36" fill="none" xmlns="http://www.w3.org/2000/svg">
<path d="M23.625 7.87891C26.1103 7.87891 28.125 9.89362 28.125 12.3789M32.625 12.3789C32.625 17.3495 28.5956 21.3789 23.625 21.3789C23.0989 21.3789 22.5833 21.3338 22.0819 21.2471C21.2374 21.1012 20.343 21.2859 19.737 21.8919L15.75 25.8789H12.375V29.2539H9V32.6289H3.375V28.4019C3.375 27.5068 3.73058 26.6483 4.36351 26.0154L14.112 16.2669C14.718 15.6609 14.9027 14.7665 14.7568 13.922C14.6701 13.4206 14.625 12.905 14.625 12.3789C14.625 7.40834 18.6544 3.37891 23.625 3.37891C28.5956 3.37891 32.625 7.40834 32.625 12.3789Z" stroke="#1E3A76" stroke-width="2" stroke-linecap="round" stroke-linejoin="round"/>
</svg>
