<svg width="274" height="33" viewBox="0 0 274 33" fill="none" xmlns="http://www.w3.org/2000/svg">
<path d="M14.8364 32.0318L18.9552 17.0453C19.0154 16.8215 19.1691 16.6363 19.3731 16.5349L32.9732 9.87189C33.8492 9.32305 33.9461 8.03659 33.1304 7.82335L3.19197 0.073155C1.57386 -0.346341 0.189773 1.34563 0.845041 2.9467L12.9173 32.5282C13.2483 33.3427 14.4619 33.0281 14.8364 32.0318Z" fill="#00ED85"/>
<path d="M143.693 32.9924H138.287L125.269 0.0200195H130.675L143.693 32.9924ZM149.189 19.4742H143.783L151.486 0.0200195H156.892L149.189 19.4742Z" fill="black"/>
<path d="M186.169 0.0253906H161.844V5.25511H186.169V0.0253906Z" fill="black"/>
<path d="M186.169 33.0002H161.844V13.9236H186.169V19.1044H166.842V27.774H186.169V33.0002Z" fill="black"/>
<path d="M217.069 32.9945H211.212L202.924 19.0986H196.121V32.9945H191.12V13.9179H206.976C208.116 13.9179 209.093 13.4879 209.905 12.6209C210.717 11.7575 211.122 10.7437 211.122 9.58307C211.122 8.42246 210.717 7.37023 209.905 6.52075C209.096 5.67127 208.116 5.24827 206.976 5.24827H191.12V0.0185547H206.933C209.367 0.0185547 211.453 0.882017 213.195 2.60894C214.936 4.33587 215.896 6.48929 216.077 9.0622V9.3908C216.077 11.7155 215.401 13.764 214.051 15.5364C212.7 17.3123 210.911 18.4484 208.688 18.9518L217.066 32.9875L217.069 32.9945Z" fill="black"/>
<path d="M233.14 32.9968C232.415 32.9968 231.673 32.9513 230.917 32.8639C227.256 32.5074 223.519 30.8748 219.707 27.9593L222.884 24.0825C227.206 27.1867 231.265 28.6864 235.728 27.6027C237.326 27.1238 238.824 25.9667 238.904 24.3482C238.904 22.8624 238.229 21.7717 236.885 21.0726C235.538 20.3734 233.926 19.7861 232.051 19.3107C229.45 18.7164 227.096 17.825 224.993 16.6364C222.89 15.4478 221.426 13.4692 221.112 10.6201C220.65 6.43217 222.726 3.14262 226.785 1.17099C232.127 -1.13624 237.614 0.0593236 242.669 3.93617L239.402 7.77106C235.989 5.18417 232.525 4.19486 228.965 5.71903C228.239 6.01617 227.634 6.46364 227.149 7.05443C226.444 7.82001 226.146 8.92468 226.197 10.0853C226.498 11.3053 227.347 12.2317 228.737 12.8714C230.128 13.5112 231.703 14.053 233.458 14.497C235.364 15.0039 237.162 15.5982 238.857 16.2798C242.308 17.7376 244.033 20.2616 244.033 23.8587C244.033 25.9108 243.411 27.7076 242.17 29.2528C240.93 30.7105 239.295 31.7627 237.269 32.4165C235.969 32.801 234.591 32.9968 233.14 32.9968Z" fill="black"/>
<path d="M273.316 32.9899H248.987V13.9133H273.316V19.0941H253.989V27.7637H273.316V32.9899Z" fill="black"/>
<path d="M269.095 2.06665H253.209V3.18338H269.095V2.06665Z" fill="black"/>
<path d="M252.934 1.12159V4.12797H250.058V1.12159H252.934ZM254.004 0.00292969H248.987V5.24664H254.004V0.00292969Z" fill="black"/>
<path d="M272.251 1.12159V4.12797H269.375V1.12159H272.251ZM273.321 0.00292969H268.304V5.24664H273.321V0.00292969Z" fill="black"/>
<path d="M132.228 32.9829H126.731L123.489 25.0684H108.578L105.378 32.9829H99.8822L107.361 14.6125H112.857L110.784 19.6989H121.326L113.309 0.010498H118.805L132.228 32.9829Z" fill="black"/>
<path d="M54.7561 32.9968C54.0306 32.9968 53.2884 32.9513 52.5329 32.8639C48.8721 32.5074 45.1344 30.8748 41.3231 27.9593L44.4992 24.0825C48.8219 27.1867 52.8806 28.6864 57.3438 27.6027C58.9418 27.1238 60.4396 25.9667 60.5198 24.3482C60.5198 22.8624 59.8445 21.7717 58.5005 21.0726C57.1532 20.3734 55.5418 19.7861 53.6662 19.3107C51.0652 18.7164 48.7116 17.825 46.6087 16.6364C44.5059 15.4478 43.0415 13.4692 42.7273 10.6201C42.2692 6.43217 44.342 3.14262 48.404 1.17099C53.7465 -1.13624 59.2327 0.0593246 64.2876 3.93617L61.0213 7.77106C57.6079 5.18417 54.1443 4.19486 50.5838 5.71903C49.8583 6.01617 49.2532 6.46363 48.7684 7.05442C48.063 7.82 47.7655 8.92468 47.8156 10.0853C48.1165 11.3053 48.9657 12.2317 50.3565 12.8714C51.7472 13.5112 53.3219 14.053 55.0771 14.497C56.9827 15.0039 58.7813 15.5982 60.4763 16.2798C63.9265 17.7376 65.6516 20.2616 65.6516 23.8587C65.6516 25.9108 65.0298 27.7076 63.7894 29.2528C62.5491 30.7105 60.9143 31.7627 58.8883 32.4165C57.5878 32.801 56.2104 32.9968 54.7595 32.9968H54.7561Z" fill="black"/>
<path d="M94.9278 32.9809H70.6027V13.9043H94.9278V19.0851H75.6041V27.7547H94.9278V32.9809Z" fill="black"/>
<path d="M94.9275 3.11476C93.6671 3.11476 92.9952 2.62185 92.4536 2.22683C91.9822 1.88424 91.6412 1.63254 90.8756 1.63254C90.11 1.63254 89.769 1.88074 89.2976 2.22683C88.756 2.62185 88.0806 3.11476 86.8236 3.11476C85.5632 3.11476 84.8879 2.62185 84.3463 2.22683C83.8749 1.88424 83.5339 1.63254 82.7683 1.63254C82.0027 1.63254 81.6617 1.88074 81.1903 2.22683C80.6487 2.62185 79.9734 3.11476 78.7163 3.11476C77.4559 3.11476 76.7806 2.62185 76.239 2.22683C75.7676 1.88424 75.4266 1.63254 74.661 1.63254C73.8921 1.63254 73.5544 1.88074 73.083 2.22683C72.5414 2.62185 71.8661 3.11476 70.6057 3.11476V1.48222C71.3746 1.48222 71.7123 1.23402 72.1837 0.887934C72.7253 0.492908 73.3973 0 74.6577 0C75.9214 0 76.5934 0.492908 77.135 0.887934C77.6064 1.23052 77.9474 1.48222 78.713 1.48222C79.4786 1.48222 79.8196 1.23402 80.291 0.887934C80.8359 0.492908 81.5079 0 82.7683 0C84.0287 0 84.704 0.492908 85.2456 0.887934C85.717 1.23052 86.058 1.48222 86.8236 1.48222C87.5892 1.48222 87.9302 1.23402 88.4016 0.887934C88.9432 0.492908 89.6185 0 90.8756 0C92.136 0 92.8079 0.492908 93.3495 0.887934C93.8209 1.23052 94.1619 1.48222 94.9275 1.48222V3.11476Z" fill="black"/>
<path d="M94.9278 8.97023C93.6674 8.97023 92.9954 8.47732 92.4538 8.08229C91.9825 7.73971 91.6414 7.48801 90.8759 7.48801C90.1103 7.48801 89.7693 7.73621 89.2979 8.08229C88.7563 8.47732 88.0809 8.97023 86.8239 8.97023C85.5635 8.97023 84.8882 8.47732 84.3466 8.08229C83.8752 7.73971 83.5342 7.48801 82.7686 7.48801C82.003 7.48801 81.662 7.73621 81.1906 8.08229C80.649 8.47732 79.9737 8.97023 78.7166 8.97023C77.4562 8.97023 76.7809 8.47732 76.2393 8.08229C75.7679 7.73971 75.4269 7.48801 74.6613 7.48801C73.8957 7.48801 73.5547 7.73621 73.08 8.08229C72.5384 8.47732 71.863 8.97023 70.6027 8.97023V7.33769C71.3716 7.33769 71.7093 7.08949 72.1807 6.7434C72.7223 6.34838 73.3976 5.85547 74.658 5.85547C75.9184 5.85547 76.5937 6.34838 77.1353 6.7434C77.6067 7.08599 77.9477 7.33769 78.7133 7.33769C79.4789 7.33769 79.8199 7.08949 80.2913 6.7434C80.8329 6.34838 81.5082 5.85547 82.7652 5.85547C84.0256 5.85547 84.701 6.34838 85.2426 6.7434C85.7139 7.08599 86.055 7.33769 86.8205 7.33769C87.5861 7.33769 87.9271 7.08949 88.3985 6.7434C88.9401 6.34838 89.6155 5.85547 90.8725 5.85547C92.1329 5.85547 92.8049 6.34838 93.3465 6.7434C93.8179 7.08599 94.1589 7.33769 94.9245 7.33769V8.97023H94.9278Z" fill="black"/>
</svg>
