<svg width="40" height="40" viewBox="0 0 40 40" fill="none" xmlns="http://www.w3.org/2000/svg">
<path d="M26.4792 19.3574L26.6667 22.6491C26.6944 23.1283 26.4097 23.5727 25.8125 23.9824C25.2153 24.3922 24.3993 24.7168 23.3646 24.9564C22.3299 25.196 21.2083 25.3158 20 25.3158C18.7917 25.3158 17.6701 25.196 16.6354 24.9564C15.6007 24.7168 14.7847 24.3922 14.1875 23.9824C13.5903 23.5727 13.3056 23.1283 13.3333 22.6491L13.5208 19.3574L19.5 21.2429C19.6528 21.2915 19.8194 21.3158 20 21.3158C20.1806 21.3158 20.3472 21.2915 20.5 21.2429L26.4792 19.3574ZM32 15.9824C32 16.1422 31.9236 16.2498 31.7708 16.3054L20.1042 19.972C20.0764 19.979 20.0417 19.9825 20 19.9825C19.9583 19.9825 19.9236 19.979 19.8958 19.972L13.1042 17.8262C12.8056 18.0623 12.559 18.4495 12.3646 18.9877C12.1701 19.5259 12.0521 20.1456 12.0104 20.847C12.4479 21.097 12.6667 21.4755 12.6667 21.9825C12.6667 22.4616 12.4653 22.8331 12.0625 23.097L12.6666 27.6074C12.6805 27.7047 12.6528 27.7915 12.5833 27.8678C12.5208 27.9442 12.4375 27.9824 12.3333 27.9824H10.3333C10.2292 27.9824 10.1458 27.9442 10.0833 27.8678C10.0139 27.7915 9.98611 27.7047 10 27.6074L10.6042 23.097C10.2014 22.8331 10 22.4616 10 21.9824C10 21.4755 10.2257 21.0901 10.6771 20.8262C10.7535 19.3887 11.0937 18.2429 11.6979 17.3887L8.22917 16.3054C8.07639 16.2498 8 16.1422 8 15.9824C8 15.8227 8.07639 15.7151 8.22917 15.6595L19.8958 11.9928C19.9236 11.9859 19.9583 11.9824 20 11.9824C20.0417 11.9824 20.0764 11.9859 20.1042 11.9928L31.7708 15.6595C31.9236 15.7151 32 15.8227 32 15.9824Z" fill="#9CA3AF"/>
</svg>
