<svg width="18" height="18" viewBox="0 0 18 18" fill="none" xmlns="http://www.w3.org/2000/svg">
<path d="M18 15.8568L17.7946 15.682C17.2122 15.1811 16.7022 14.6068 16.2785 13.9747C15.8155 13.1023 15.5383 12.1494 15.4631 11.172V8.29349C15.4671 6.75845 14.8899 5.27484 13.8399 4.12141C12.7899 2.96797 11.3395 2.2241 9.76107 2.02956V1.27789C9.76107 1.07158 9.67612 0.873722 9.52489 0.727839C9.37367 0.581956 9.16856 0.5 8.9547 0.5C8.74083 0.5 8.53573 0.581956 8.3845 0.727839C8.23328 0.873722 8.14832 1.07158 8.14832 1.27789V2.04122C6.58405 2.24978 5.15112 2.99814 4.11495 4.14771C3.07878 5.29727 2.50957 6.77013 2.51275 8.29349V11.172C2.43758 12.1494 2.16032 13.1023 1.69732 13.9747C1.28107 14.6054 0.779312 15.1796 0.205369 15.682L0 15.8568V17.5H18V15.8568Z" fill="#BCC1C9"/>
</svg>
