<svg width="15" height="16" viewBox="0 0 15 16" fill="none" xmlns="http://www.w3.org/2000/svg">
<path d="M14.5 6.875H10M8.3125 3.78125C8.3125 5.17922 7.17922 6.3125 5.78125 6.3125C4.38328 6.3125 3.25 5.17922 3.25 3.78125C3.25 2.38328 4.38328 1.25 5.78125 1.25C7.17922 1.25 8.3125 2.38328 8.3125 3.78125ZM1.00069 13.4257C1.00023 13.3985 1 13.3711 1 13.3438C1 10.7031 3.14064 8.5625 5.78125 8.5625C8.42186 8.5625 10.5625 10.7031 10.5625 13.3438V13.3457C10.5625 13.3724 10.5623 13.3991 10.5618 13.4257C9.16552 14.2664 7.52986 14.75 5.78125 14.75C4.03264 14.75 2.39698 14.2664 1.00069 13.4257Z" stroke="#C03744" stroke-linecap="round" stroke-linejoin="round"/>
</svg>
