<svg width="24" height="26" viewBox="0 0 24 26" fill="none" xmlns="http://www.w3.org/2000/svg">
<g id="heroicons-micro/pencil-square">
<g id="Union">
<path d="M20.2312 4.40019C19.2061 3.32917 17.544 3.32917 16.5189 4.40019L10.1265 11.0788C9.74345 11.479 9.43962 11.9541 9.23232 12.4769L7.96068 15.6842C7.78654 16.1234 7.88278 16.6289 8.20452 16.9651C8.52626 17.3013 9.01014 17.4018 9.43053 17.2199L12.5007 15.8913C13.0012 15.6748 13.456 15.3573 13.8391 14.9571L20.2312 8.27873C21.2563 7.2077 21.2563 5.47122 20.2312 4.40019Z" fill="#BCC1C9"/>
<path d="M7.125 5.94767C6.08947 5.94767 5.25 6.82472 5.25 7.90663V18.0932C5.25 19.1751 6.08947 20.0521 7.125 20.0521H16.875C17.9105 20.0521 18.75 19.1751 18.75 18.0932V14.5671C18.75 13.9179 19.2537 13.3917 19.875 13.3917C20.4963 13.3917 21 13.9179 21 14.5671V18.0932C21 20.4734 19.1532 22.4029 16.875 22.4029H7.125C4.84683 22.4029 3 20.4734 3 18.0932V7.90663C3 5.52644 4.84683 3.59692 7.125 3.59692H10.5C11.1213 3.59692 11.625 4.12316 11.625 4.7723C11.625 5.42144 11.1213 5.94767 10.5 5.94767H7.125Z" fill="#BCC1C9"/>
</g>
</g>
</svg>
