  <svg
                    width="18"
                    height="18"
                    viewBox="0 0 18 18"
                    fill="none"
                    xmlns="http://www.w3.org/2000/svg"
                  >
                    <path
                      d="M8.50132 9.85C9.30904 9.85 9.96383 9.24558 9.96383 8.5C9.96383 7.75442 9.30904 7.15 8.50132 7.15C7.6936 7.15 7.03881 7.75442 7.03881 8.5C7.03881 9.24558 7.6936 9.85 8.50132 9.85Z"
                      fill= "#ffffff"
                    />
                    <path
                      fill-rule="evenodd"
                      clip-rule="evenodd"
                      d="M2.04618 8.75244C1.98452 8.58719 1.98461 8.40754 2.04643 8.24234C2.97029 5.77334 5.51036 4 8.49915 4C11.49 4 14.0316 5.77585 14.9538 8.24756C15.0155 8.41282 15.0154 8.59246 14.9536 8.75767C14.0297 11.2267 11.4896 13 8.50085 13C5.50996 13 2.96841 11.2242 2.04618 8.75244ZM11.4263 8.5C11.4263 9.99117 10.1168 11.2 8.50132 11.2C6.88588 11.2 5.5763 9.99117 5.5763 8.5C5.5763 7.00883 6.88588 5.8 8.50132 5.8C10.1168 5.8 11.4263 7.00883 11.4263 8.5Z"
                      fill="#ffffff"
                    />
                  </svg>