  <svg
                      width="18"
                      height="24"
                      viewBox="0 0 18 18"
                      fill="none"
                      xmlns="http://www.w3.org/2000/svg"
                    >
                      <path
                        fill-rule="evenodd"
                        clip-rule="evenodd"
                        d="M2.25 4.5C2.25 3.25736 3.25736 2.25 4.5 2.25H13.5C14.7426 2.25 15.75 3.25736 15.75 4.5V13.5C15.75 14.7426 14.7426 15.75 13.5 15.75H4.5C3.25736 15.75 2.25 14.7426 2.25 13.5V4.5ZM5.625 10.125C5.93566 10.125 6.1875 10.3768 6.1875 10.6875V12.375C6.1875 12.6857 5.93566 12.9375 5.625 12.9375C5.31434 12.9375 5.0625 12.6857 5.0625 12.375V10.6875C5.0625 10.3768 5.31434 10.125 5.625 10.125ZM8.4375 9C8.4375 8.68934 8.18566 8.4375 7.875 8.4375C7.56434 8.4375 7.3125 8.68934 7.3125 9V12.375C7.3125 12.6857 7.56434 12.9375 7.875 12.9375C8.18566 12.9375 8.4375 12.6857 8.4375 12.375V9ZM10.125 6.75C10.4357 6.75 10.6875 7.00184 10.6875 7.3125V12.375C10.6875 12.6857 10.4357 12.9375 10.125 12.9375C9.81434 12.9375 9.5625 12.6857 9.5625 12.375V7.3125C9.5625 7.00184 9.81434 6.75 10.125 6.75ZM12.9375 5.625C12.9375 5.31434 12.6857 5.0625 12.375 5.0625C12.0643 5.0625 11.8125 5.31434 11.8125 5.625V12.375C11.8125 12.6857 12.0643 12.9375 12.375 12.9375C12.6857 12.9375 12.9375 12.6857 12.9375 12.375V5.625Z"
                        fill="#ffffff"
                      />
                    </svg>