<svg width="16" height="14" viewBox="0 0 16 14" fill="none" xmlns="http://www.w3.org/2000/svg">
<path id="Vector" d="M2.85245 0.601562H12.0006L13.6364 2.24753L15.2323 3.8068V11.0743C15.2323 11.6915 14.9952 12.2835 14.5731 12.7199C14.1509 13.1564 13.5784 13.4016 12.9814 13.4016H2.85245C2.25548 13.4016 1.68296 13.1564 1.26083 12.7199C0.838709 12.2835 0.601563 11.6915 0.601562 11.0743V2.92884C0.601563 2.3116 0.838709 1.71965 1.26083 1.2832C1.68296 0.846757 2.25548 0.601563 2.85245 0.601562ZM11.856 1.18338V3.81145H14.5638L11.856 1.18338ZM6.17532 7.87429C6.17532 7.52869 6.09935 7.25116 5.9069 7.05742C5.75497 6.90033 5.522 6.7956 5.19787 6.74847L4.76233 6.68564C4.63572 6.66993 4.55975 6.6228 4.51417 6.57567C4.46933 6.53006 4.44383 6.46791 4.44326 6.40287C4.44326 6.24054 4.56988 6.05727 4.87881 6.05727C5.03581 6.05727 5.33462 6.04156 5.56252 6.2772L6.11961 5.7012C5.81068 5.38178 5.42071 5.25611 4.90413 5.25611C4.08368 5.25611 3.58736 5.75356 3.58736 6.43429C3.58736 6.75371 3.6684 7.00505 3.83552 7.18309C3.99759 7.35589 4.24068 7.46585 4.55975 7.51298L4.99529 7.57582C5.11178 7.59153 5.18775 7.62818 5.23333 7.67531C5.28397 7.73291 5.30423 7.80622 5.30423 7.89524C5.30423 8.10993 5.1371 8.23036 4.78765 8.23036C4.49897 8.23036 4.16978 8.16229 3.98239 7.96854L3.41517 8.55502C3.77982 8.94251 4.23056 9.04724 4.78259 9.04724C5.54226 9.04724 6.17532 8.63356 6.17532 7.87429ZM9.38678 7.8324H8.48529C8.42958 8.04185 8.31817 8.23036 8.02443 8.23036C7.86236 8.23036 7.74081 8.16229 7.67554 8.07327C7.59394 7.96331 7.53823 7.8324 7.53823 7.15167C7.53823 6.47094 7.59451 6.34004 7.67497 6.23007C7.74081 6.14105 7.86236 6.07298 8.02443 6.07298C8.31817 6.07298 8.42959 6.26149 8.48586 6.47094H9.38678C9.2551 5.64884 8.70307 5.25611 8.01936 5.25611C7.59901 5.25611 7.27994 5.40273 7.01659 5.67502C6.63675 6.06774 6.65195 6.59138 6.65195 7.15167C6.65195 7.71196 6.63675 8.2356 7.01659 8.62833C7.27994 8.90062 7.59901 9.04724 8.01936 9.04724C8.70307 9.04724 9.2551 8.65451 9.38678 7.8324ZM12.4924 7.15167C12.4924 6.59138 12.5076 6.06774 12.1278 5.67502C11.8644 5.40273 11.5606 5.25611 11.12 5.25611C10.6793 5.25611 10.3755 5.40273 10.1121 5.67502C9.73229 6.06774 9.74748 6.59138 9.74748 7.15167C9.74748 7.71196 9.73229 8.2356 10.1121 8.62833C10.3755 8.90062 10.6793 9.04724 11.1194 9.04724C11.5606 9.04724 11.8644 8.90062 12.1278 8.62833C12.5076 8.2356 12.4924 7.71196 12.4924 7.15167ZM11.6061 7.15167C11.6061 7.8324 11.5555 7.95284 11.4745 8.0628C11.4315 8.11664 11.3773 8.1597 11.3158 8.18872C11.2544 8.21775 11.1875 8.23198 11.12 8.23036C11.0525 8.23198 10.9855 8.21775 10.9241 8.18872C10.8627 8.1597 10.8084 8.11664 10.7654 8.0628C10.6844 7.95284 10.6338 7.8324 10.6338 7.15167C10.6338 6.47094 10.6844 6.34527 10.7654 6.23531C10.8313 6.14629 10.9579 6.07298 11.12 6.07298C11.282 6.07298 11.4086 6.14629 11.4745 6.23531C11.5555 6.34527 11.6061 6.47094 11.6061 7.15167Z" fill="#2D519E"/>
</svg>
