<svg width="14" height="14" viewBox="0 0 14 14" fill="none" xmlns="http://www.w3.org/2000/svg">
<path d="M5.77257 1C4.8017 1 3.85263 1.28789 3.04538 1.82728C2.23813 2.36666 1.60897 3.13331 1.23743 4.03028C0.865897 4.92724 0.768686 5.91424 0.958093 6.86645C1.1475 7.81866 1.61501 8.69333 2.30152 9.37983C2.98803 10.0663 3.86269 10.5339 4.8149 10.7233C5.76712 10.9127 6.75411 10.8155 7.65108 10.4439C8.54804 10.0724 9.31469 9.44322 9.85408 8.63597C10.3935 7.82873 10.6814 6.87966 10.6814 5.9088C10.6814 5.26416 10.5544 4.62584 10.3077 4.03028C10.061 3.43472 9.69943 2.89357 9.24361 2.43775C8.78778 1.98193 8.24664 1.62035 7.65108 1.37366C7.05552 1.12697 6.4172 1 5.77257 1Z" stroke="#AFAFAF" stroke-width="1.5" stroke-miterlimit="10"/>
<path d="M9.43359 9.57031L12.8619 12.9986" stroke="#AFAFAF" stroke-width="1.5" stroke-miterlimit="10" stroke-linecap="round"/>
</svg>
