<svg width="14" height="15" viewBox="0 0 14 15" fill="none" xmlns="http://www.w3.org/2000/svg">
<path d="M5.77159 1.50073C4.80072 1.50073 3.85165 1.78863 3.04441 2.32801C2.23716 2.8674 1.60799 3.63405 1.23645 4.53101C0.86492 5.42798 0.767709 6.41497 0.957116 7.36718C1.14652 8.3194 1.61404 9.19406 2.30054 9.88057C2.98705 10.5671 3.86171 11.0346 4.81393 11.224C5.76614 11.4134 6.75314 11.3162 7.6501 10.9447C8.54707 10.5731 9.31372 9.94395 9.8531 9.13671C10.3925 8.32946 10.6804 7.3804 10.6804 6.40953C10.6804 5.7649 10.5534 5.12657 10.3067 4.53101C10.06 3.93545 9.69845 3.39431 9.24263 2.93848C8.78681 2.48266 8.24566 2.12108 7.6501 1.87439C7.05454 1.6277 6.41622 1.50073 5.77159 1.50073Z" stroke="#AFAFAF" stroke-width="1.5" stroke-miterlimit="10"/>
<path d="M9.43262 10.071L12.8609 13.4994" stroke="#AFAFAF" stroke-width="1.5" stroke-miterlimit="10" stroke-linecap="round"/>
</svg>
