
                <svg
                  width="18"
                  height="24"
                  viewBox="0 0 18 18"
                  fill="none"
                  xmlns="http://www.w3.org/2000/svg"
                >
                  <path
                    fill-rule="evenodd"
                    clip-rule="evenodd"
                    d="M8.87102 1.6875C8.18359 1.6875 7.59691 2.18449 7.4839 2.86256L7.41524 3.27451C7.38013 3.48521 7.2278 3.65556 7.02776 3.73046C6.90608 3.77602 6.7864 3.82568 6.66888 3.87926C6.47444 3.96792 6.24616 3.95522 6.07227 3.83101L5.73224 3.58813C5.17286 3.18857 4.40659 3.25199 3.92051 3.73808L3.73809 3.92049C3.25201 4.40658 3.18859 5.17284 3.58815 5.73223L3.83102 6.07224C3.95523 6.24614 3.96793 6.47442 3.87927 6.66886C3.82568 6.78638 3.77603 6.90607 3.73046 7.02775C3.65556 7.22779 3.48521 7.38012 3.27452 7.41523L2.86256 7.48389C2.18449 7.5969 1.6875 8.18358 1.6875 8.87101V9.12898C1.6875 9.81641 2.18449 10.4031 2.86256 10.5161L3.27451 10.5848C3.48521 10.6199 3.65556 10.7722 3.73046 10.9722C3.77602 11.0939 3.82568 11.2136 3.87926 11.3311C3.96792 11.5256 3.95522 11.7538 3.83101 11.9277L3.58812 12.2678C3.18856 12.8272 3.25197 13.5934 3.73806 14.0795L3.92048 14.2619C4.40656 14.748 5.17282 14.8114 5.73221 14.4119L6.07225 14.169C6.24614 14.0448 6.47442 14.0321 6.66887 14.1207C6.78638 14.1743 6.90607 14.224 7.02775 14.2695C7.22779 14.3444 7.38012 14.5148 7.41523 14.7255L7.48389 15.1374C7.5969 15.8155 8.18358 16.3125 8.87101 16.3125H9.12898C9.81641 16.3125 10.4031 15.8155 10.5161 15.1374L10.5848 14.7255C10.6199 14.5148 10.7722 14.3444 10.9722 14.2695C11.0939 14.224 11.2136 14.1743 11.3311 14.1207C11.5256 14.0321 11.7538 14.0448 11.9277 14.169L12.2678 14.4119C12.8271 14.8114 13.5934 14.748 14.0795 14.2619L14.2619 14.0795C14.748 13.5934 14.8114 12.8272 14.4118 12.2678L14.169 11.9278C14.0448 11.7539 14.0321 11.5256 14.1207 11.3311C14.1743 11.2136 14.224 11.0939 14.2695 10.9722C14.3444 10.7722 14.5148 10.6199 14.7255 10.5848L15.1374 10.5161C15.8155 10.4031 16.3125 9.81642 16.3125 9.12899V8.87102C16.3125 8.18359 15.8155 7.59691 15.1374 7.4839L14.7255 7.41524C14.5148 7.38013 14.3444 7.2278 14.2695 7.02776C14.224 6.90608 14.1743 6.7864 14.1207 6.66889C14.0321 6.47444 14.0448 6.24617 14.169 6.07227L14.4119 5.73223C14.8114 5.17284 14.748 4.40658 14.2619 3.92049L14.0795 3.73808C13.5934 3.25199 12.8272 3.18857 12.2678 3.58813L11.9278 3.83102C11.7539 3.95523 11.5256 3.96793 11.3311 3.87927C11.2136 3.82568 11.0939 3.77603 10.9722 3.73046C10.7722 3.65556 10.6199 3.48522 10.5848 3.27452L10.5161 2.86256C10.4031 2.18449 9.81642 1.6875 9.12899 1.6875H8.87102ZM9 11.8125C10.5533 11.8125 11.8125 10.5533 11.8125 9C11.8125 7.4467 10.5533 6.1875 9 6.1875C7.4467 6.1875 6.1875 7.4467 6.1875 9C6.1875 10.5533 7.4467 11.8125 9 11.8125Z"
                    fill="#737373"
                  />
                </svg>
            