    <svg
                      width="18"
                      height="24"
                      viewBox="0 0 18 18"
                      fill="none"
                      xmlns="http://www.w3.org/2000/svg"
                    >
                      <g clip-path="url(#clip0_507_11040)">
                        <path
                          d="M9 0.5625C5.58274 0.5625 2.8125 3.33274 2.8125 6.75C2.8125 9.03808 4.05473 11.0354 5.89887 12.1053C6.41296 12.4036 6.73489 12.8613 6.74946 13.3219C6.75749 13.576 6.93492 13.7931 7.1823 13.8516C7.44584 13.9138 7.71439 13.9629 7.98719 13.9979C8.22989 14.0291 8.43763 13.8347 8.43763 13.59V10.0942C8.19817 10.0677 7.96352 10.0245 7.73493 9.96566C7.43407 9.88822 7.25295 9.58156 7.33039 9.28071C7.40782 8.97985 7.71449 8.79873 8.01534 8.87617C8.32945 8.95701 8.65932 9.00014 9.00013 9.00014C9.34095 9.00014 9.67082 8.95701 9.98493 8.87617C10.2858 8.79873 10.5924 8.97985 10.6699 9.28071C10.7473 9.58156 10.5662 9.88822 10.2653 9.96566C10.0368 10.0245 9.8021 10.0677 9.56264 10.0942V13.5899C9.56264 13.8347 9.77039 14.0291 10.0131 13.9979C10.2858 13.9628 10.5543 13.9138 10.8177 13.8516C11.0651 13.7931 11.2425 13.576 11.2505 13.3219C11.2651 12.8613 11.587 12.4036 12.1011 12.1053C13.9453 11.0354 15.1875 9.03808 15.1875 6.75C15.1875 3.33274 12.4173 0.5625 9 0.5625Z"
                          fill="#737373"
                        />
                        <path
                          fill-rule="evenodd"
                          clip-rule="evenodd"
                          d="M6.75985 14.9247C6.81775 14.6195 7.11212 14.419 7.41733 14.4769C7.92956 14.5741 8.45857 14.625 9 14.625C9.54143 14.625 10.0704 14.5741 10.5827 14.4769C10.8879 14.419 11.1822 14.6195 11.2401 14.9247C11.298 15.23 11.0976 15.5243 10.7923 15.5822C10.2113 15.6924 9.61213 15.75 9 15.75C8.38787 15.75 7.78866 15.6924 7.20767 15.5822C6.90245 15.5243 6.70196 15.23 6.75985 14.9247Z"
                          fill="#737373"
                        />
                        <path
                          fill-rule="evenodd"
                          clip-rule="evenodd"
                          d="M7.31555 16.758C7.34787 16.449 7.62455 16.2247 7.93352 16.2571C8.28383 16.2937 8.63963 16.3125 9 16.3125C9.36037 16.3125 9.71617 16.2937 10.0665 16.2571C10.3754 16.2247 10.6521 16.449 10.6844 16.758C10.7168 17.0669 10.4925 17.3436 10.1835 17.3759C9.7944 17.4167 9.39954 17.4375 9 17.4375C8.60046 17.4375 8.2056 17.4167 7.81647 17.3759C7.5075 17.3436 7.28323 17.0669 7.31555 16.758Z"
                          fill="#737373"
                        />
                      </g>
                      <defs>
                        <clipPath id="clip0_507_11040">
                          <rect width="18" height="24" fill="white" />
                        </clipPath>
                      </defs>
                    </svg>