<svg width="18" height="18" viewBox="0 0 18 18" fill="none" xmlns="http://www.w3.org/2000/svg">
<path fill-rule="evenodd" clip-rule="evenodd" d="M3.8248 1.79688C2.70643 1.79688 1.7998 2.7035 1.7998 3.82188V6.07188C1.7998 7.19025 2.70643 8.09688 3.8248 8.09688H6.07481C7.19318 8.09688 8.0998 7.19025 8.0998 6.07188V3.82188C8.0998 2.7035 7.19318 1.79688 6.07481 1.79688H3.8248ZM3.8248 9.89687C2.70643 9.89687 1.7998 10.8035 1.7998 11.9219V14.1719C1.7998 15.2903 2.70643 16.1969 3.8248 16.1969H6.07481C7.19318 16.1969 8.0998 15.2903 8.0998 14.1719V11.9219C8.0998 10.8035 7.19318 9.89687 6.07481 9.89687H3.8248ZM11.9248 1.79688C10.8064 1.79688 9.8998 2.7035 9.8998 3.82188V6.07188C9.8998 7.19025 10.8064 8.09688 11.9248 8.09688H14.1748C15.2932 8.09688 16.1998 7.19025 16.1998 6.07188V3.82188C16.1998 2.7035 15.2932 1.79688 14.1748 1.79688H11.9248ZM11.9248 9.89687C10.8064 9.89687 9.8998 10.8035 9.8998 11.9219V14.1719C9.8998 15.2903 10.8064 16.1969 11.9248 16.1969H14.1748C15.2932 16.1969 16.1998 15.2903 16.1998 14.1719V11.9219C16.1998 10.8035 15.2932 9.89687 14.1748 9.89687H11.9248Z" fill="white"/>
</svg>
