<svg width="20" height="20" viewBox="0 0 20 20" fill="none" xmlns="http://www.w3.org/2000/svg">
<path id="Star 5" d="M9.48073 1.49492C9.67288 1.03294 10.3273 1.03294 10.5195 1.49492L12.6454 6.60638C12.7264 6.80113 12.9096 6.9342 13.1199 6.95106L18.6381 7.39346C19.1369 7.43344 19.3391 8.05585 18.9591 8.38135L14.7548 11.9828C14.5946 12.12 14.5246 12.3353 14.5736 12.5405L15.858 17.9254C15.9741 18.4121 15.4447 18.7967 15.0177 18.5359L10.2933 15.6503C10.1133 15.5404 9.88691 15.5404 9.7069 15.6503L4.98251 18.5359C4.55551 18.7967 4.02606 18.4121 4.14215 17.9254L5.42664 12.5405C5.47558 12.3353 5.40562 12.12 5.24543 11.9828L1.04111 8.38135C0.661119 8.05585 0.863352 7.43344 1.36209 7.39346L6.88034 6.95106C7.0906 6.9342 7.27375 6.80113 7.35476 6.60638L9.48073 1.49492Z" stroke="#1E3A76" stroke-width="1.5" stroke-linecap="round" stroke-linejoin="round"/>
</svg>
