<svg width="24" height="24" viewBox="0 0 24 24" fill="none" xmlns="http://www.w3.org/2000/svg">
<g id="heroicons-solid/table-cells">
<path id="Vector (Stroke)" fill-rule="evenodd" clip-rule="evenodd" d="M1.50098 5.625C1.50098 4.58947 2.34044 3.75 3.37598 3.75H20.626C21.6615 3.75 22.501 4.58947 22.501 5.625V18.375C22.501 19.4105 21.6615 20.25 20.626 20.25H3.37598C2.34044 20.25 1.50098 19.4105 1.50098 18.375V5.625ZM21.001 9.375C21.001 9.16789 20.8331 9 20.626 9H13.126C12.9189 9 12.751 9.16789 12.751 9.375V10.875C12.751 11.0821 12.9189 11.25 13.126 11.25H20.626C20.8331 11.25 21.001 11.0821 21.001 10.875V9.375ZM21.001 13.125C21.001 12.9179 20.8331 12.75 20.626 12.75H13.126C12.9189 12.75 12.751 12.9179 12.751 13.125V14.625C12.751 14.8321 12.9189 15 13.126 15H20.626C20.8331 15 21.001 14.8321 21.001 14.625V13.125ZM21.001 16.875C21.001 16.6679 20.8331 16.5 20.626 16.5H13.126C12.9189 16.5 12.751 16.6679 12.751 16.875V18.375C12.751 18.5821 12.9189 18.75 13.126 18.75H20.626C20.8331 18.75 21.001 18.5821 21.001 18.375V16.875ZM10.876 18.75C11.0831 18.75 11.251 18.5821 11.251 18.375V16.875C11.251 16.6679 11.0831 16.5 10.876 16.5H3.37598C3.16887 16.5 3.00098 16.6679 3.00098 16.875V18.375C3.00098 18.5821 3.16887 18.75 3.37598 18.75H10.876ZM3.37598 15H10.876C11.0831 15 11.251 14.8321 11.251 14.625V13.125C11.251 12.9179 11.0831 12.75 10.876 12.75H3.37598C3.16887 12.75 3.00098 12.9179 3.00098 13.125V14.625C3.00098 14.8321 3.16887 15 3.37598 15ZM3.37598 11.25H10.876C11.0831 11.25 11.251 11.0821 11.251 10.875V9.375C11.251 9.16789 11.0831 9 10.876 9H3.37598C3.16887 9 3.00098 9.16789 3.00098 9.375V10.875C3.00098 11.0821 3.16887 11.25 3.37598 11.25Z" fill="#737373"/>
</g>
</svg>
