<svg width="18" height="18" viewBox="0 0 18 18" fill="none" xmlns="http://www.w3.org/2000/svg">
<path d="M2.75122 4.3125C2.75122 2.41402 4.29024 0.875 6.18872 0.875C8.0872 0.875 9.62622 2.41402 9.62622 4.3125C9.62622 6.21098 8.0872 7.75 6.18872 7.75C4.29024 7.75 2.75122 6.21098 2.75122 4.3125Z" fill="white"/>
<path d="M10.8762 6.1875C10.8762 4.6342 12.1354 3.375 13.6887 3.375C15.242 3.375 16.5012 4.6342 16.5012 6.1875C16.5012 7.7408 15.242 9 13.6887 9C12.1354 9 10.8762 7.7408 10.8762 6.1875Z" fill="white"/>
<path d="M0.251221 14.9375C0.251221 11.6583 2.90953 9 6.18872 9C9.46791 9 12.1262 11.6583 12.1262 14.9375V14.9396C12.1262 14.9728 12.1259 15.0061 12.1254 15.0391C12.1217 15.2545 12.0074 15.4529 11.8228 15.564C10.1768 16.5551 8.24836 17.125 6.18872 17.125C4.12908 17.125 2.20063 16.5551 0.554605 15.564C0.370023 15.4529 0.255698 15.2545 0.252076 15.0391C0.251508 15.0053 0.251221 14.9715 0.251221 14.9375Z" fill="white"/>
<path d="M13.3761 14.9401C13.3761 14.9802 13.3757 15.0203 13.3751 15.0601C13.3703 15.3423 13.3022 15.6148 13.1809 15.86C13.3489 15.8699 13.5182 15.875 13.6886 15.875C15.0183 15.875 16.2779 15.5669 17.3982 15.0177C17.6041 14.9168 17.7382 14.7113 17.7476 14.4823C17.7499 14.4259 17.7511 14.3693 17.7511 14.3125C17.7511 12.0688 15.9322 10.25 13.6886 10.25C13.0665 10.25 12.4772 10.3898 11.9501 10.6397C12.8458 11.8384 13.3761 13.326 13.3761 14.9375V14.9401Z" fill="white"/>
</svg>
