<svg width="16" height="17" viewBox="0 0 16 17" fill="none" xmlns="http://www.w3.org/2000/svg">
<g id="heroicons-solid/user">
<g id="Vector">
<path fill-rule="evenodd" clip-rule="evenodd" d="M4.99924 4.98438C4.99924 3.32752 6.34239 1.98438 7.99924 1.98438C9.6561 1.98438 10.9992 3.32752 10.9992 4.98438C10.9992 6.64123 9.6561 7.98438 7.99924 7.98438C6.34239 7.98438 4.99924 6.64123 4.99924 4.98438Z" fill="#737373"/>
<path fill-rule="evenodd" clip-rule="evenodd" d="M2.50007 14.3879C2.55163 11.3948 4.9939 8.98438 7.99924 8.98438C11.0047 8.98438 13.447 11.3949 13.4984 14.3881C13.5018 14.5867 13.3875 14.7684 13.207 14.8512C11.6211 15.5789 9.85693 15.9844 7.99946 15.9844C6.14182 15.9844 4.37753 15.5788 2.79146 14.851C2.61101 14.7682 2.49666 14.5864 2.50007 14.3879Z" fill="#737373"/>
</g>
</g>
</svg>
