<svg width="16" height="17" viewBox="0 0 16 17" fill="none" xmlns="http://www.w3.org/2000/svg">
<path fill-rule="evenodd" clip-rule="evenodd" d="M5.5 4.72656C5.5 3.34585 6.61929 2.22656 8 2.22656C9.38071 2.22656 10.5 3.34585 10.5 4.72656C10.5 6.10727 9.38071 7.22656 8 7.22656C6.61929 7.22656 5.5 6.10727 5.5 4.72656Z" fill="#737373"/>
<path fill-rule="evenodd" clip-rule="evenodd" d="M10.5 6.72656C10.5 5.62199 11.3954 4.72656 12.5 4.72656C13.6046 4.72656 14.5 5.62199 14.5 6.72656C14.5 7.83113 13.6046 8.72656 12.5 8.72656C11.3954 8.72656 10.5 7.83113 10.5 6.72656Z" fill="#737373"/>
<path fill-rule="evenodd" clip-rule="evenodd" d="M1.5 6.72656C1.5 5.62199 2.39543 4.72656 3.5 4.72656C4.60457 4.72656 5.5 5.62199 5.5 6.72656C5.5 7.83113 4.60457 8.72656 3.5 8.72656C2.39543 8.72656 1.5 7.83113 1.5 6.72656Z" fill="#737373"/>
<path fill-rule="evenodd" clip-rule="evenodd" d="M4.20657 10.3049C5.00522 9.05617 6.40557 8.22656 8 8.22656C9.59463 8.22656 10.9951 9.05637 11.7937 10.3054C12.3458 11.1688 12.5847 12.21 12.4726 13.2252C12.4551 13.3838 12.3629 13.5246 12.2245 13.604C10.9796 14.3183 9.53672 14.7266 8 14.7266C6.46328 14.7266 5.02039 14.3183 3.7755 13.604C3.63706 13.5246 3.54486 13.3838 3.52736 13.2252C3.41529 12.2098 3.65427 11.1685 4.20657 10.3049Z" fill="#737373"/>
<path d="M3.38819 9.72902C3.38016 9.74135 3.37218 9.75372 3.36425 9.76612C2.72061 10.7725 2.42605 11.971 2.51648 13.1526C2.11111 13.091 1.7178 12.992 1.34029 12.859L1.26365 12.832C1.12384 12.7828 1.02615 12.6558 1.01439 12.5081L1.00795 12.4271C1.00268 12.3608 1 12.294 1 12.2266C1 10.8833 2.05936 9.7875 3.38819 9.72902Z" fill="#737373"/>
<path d="M13.4838 13.1525C13.5742 11.9712 13.2797 10.7729 12.6363 9.76668C12.6283 9.7541 12.6202 9.74155 12.6121 9.72903C13.9408 9.78764 15 10.8834 15 12.2266C15 12.294 14.9973 12.3608 14.9921 12.4271L14.9856 12.5081C14.9738 12.6558 14.8762 12.7828 14.7364 12.832L14.6597 12.859C14.2823 12.9919 13.889 13.091 13.4838 13.1525Z" fill="#737373"/>
</svg>
