<svg width="24" height="24" viewBox="0 0 24 24" fill="none" xmlns="http://www.w3.org/2000/svg">
<path d="M22.6875 15.4891L14.6625 2.57656C14.025 1.71406 13.05 1.22656 12 1.22656C10.9125 1.22656 9.93753 1.71406 9.33753 2.57656L1.31253 15.4891C0.562527 16.5016 0.450027 17.8141 1.01253 18.9391C1.57503 20.0641 2.70003 20.7766 3.97503 20.7766H20.025C21.3 20.7766 22.425 20.0641 22.9875 18.9391C23.55 17.8516 23.4375 16.5016 22.6875 15.4891ZM21.4875 18.1891C21.1875 18.7516 20.6625 19.0891 20.025 19.0891H3.97503C3.33753 19.0891 2.81253 18.7516 2.51253 18.1891C2.25003 17.6266 2.28753 16.9891 2.66253 16.5016L10.6875 3.58906C10.9875 3.17656 11.475 2.91406 12 2.91406C12.525 2.91406 13.0125 3.13906 13.3125 3.58906L21.3375 16.5016C21.7125 16.9891 21.75 17.6266 21.4875 18.1891Z" fill="#C03744"/>
<path d="M12 8.20312C11.55 8.20312 11.1375 8.57812 11.1375 9.06562V13.1531C11.1375 13.6031 11.5125 14.0156 12 14.0156C12.4875 14.0156 12.8625 13.6406 12.8625 13.1531V9.02813C12.8625 8.57813 12.45 8.20312 12 8.20312Z" fill="#C03744"/>
<path d="M12 15C11.55 15 11.1375 15.375 11.1375 15.8625V16.05C11.1375 16.5 11.5125 16.9125 12 16.9125C12.4875 16.9125 12.8625 16.5375 12.8625 16.05V15.825C12.8625 15.375 12.45 15 12 15Z" fill="#C03744"/>
</svg>
