<svg width="60" height="60" viewBox="0 0 60 60" fill="none" xmlns="http://www.w3.org/2000/svg">
<rect width="60" height="60" rx="30" fill="#FEEBEB"/>
<path d="M40.6856 33.4891L32.6606 20.5766C32.0231 19.7141 31.0481 19.2266 29.9981 19.2266C28.9106 19.2266 27.9356 19.7141 27.3356 20.5766L19.3106 33.4891C18.5606 34.5016 18.4481 35.8141 19.0106 36.9391C19.5731 38.0641 20.6981 38.7766 21.9731 38.7766H38.0231C39.2981 38.7766 40.4231 38.0641 40.9856 36.9391C41.5481 35.8516 41.4356 34.5016 40.6856 33.4891ZM39.4856 36.1891C39.1856 36.7516 38.6606 37.0891 38.0231 37.0891H21.9731C21.3356 37.0891 20.8106 36.7516 20.5106 36.1891C20.2481 35.6266 20.2856 34.9891 20.6606 34.5016L28.6856 21.5891C28.9856 21.1766 29.4731 20.9141 29.9981 20.9141C30.5231 20.9141 31.0106 21.1391 31.3106 21.5891L39.3356 34.5016C39.7106 34.9891 39.7481 35.6266 39.4856 36.1891Z" fill="#C03744"/>
<path d="M29.9992 26.2031C29.5492 26.2031 29.1367 26.5781 29.1367 27.0656V31.1531C29.1367 31.6031 29.5117 32.0156 29.9992 32.0156C30.4867 32.0156 30.8617 31.6406 30.8617 31.1531V27.0281C30.8617 26.5781 30.4492 26.2031 29.9992 26.2031Z" fill="#C03744"/>
<path d="M29.9992 33C29.5492 33 29.1367 33.375 29.1367 33.8625V34.05C29.1367 34.5 29.5117 34.9125 29.9992 34.9125C30.4867 34.9125 30.8617 34.5375 30.8617 34.05V33.825C30.8617 33.375 30.4492 33 29.9992 33Z" fill="#C03744"/>
</svg>
